PathFileType	4	(X/Y/Z)	Kaydara	
DataRate	CameraRate	NumFrames	NumMarkers	Units	OrigDataRate	OrigDataStartFrame	OrigNumFrames	
120.00	120.00	4	72	mm	120.00	34	268	
Frame#	Time	Hips			RightUpLeg			RightLeg			RightFoot			RightFoot_End			LeftUpLeg			LeftLeg			LeftFoot			LeftFoot_End			Spine			Spine1			Spine2			Spine3			Neck			Head			Head_End			RightShoulder			RightArm			RightForeArm			RightHand			RightHandThumb1			RightHandThumb2			RightHandThumb3			RightHandThumb3_End			RightInHandIndex			RightHandIndex1			RightHandIndex2			RightHandIndex3			RightHandIndex3_End			RightInHandMiddle			RightHandMiddle1			RightHandMiddle2			RightHandMiddle3			RightHandMiddle3_End			RightInHandRing			RightHandRing1			RightHandRing2			RightHandRing3			RightHandRing3_End			RightInHandPinky			RightHandPinky1			RightHandPinky2			RightHandPinky3			RightHandPinky3_End			LeftShoulder			LeftArm			LeftForeArm			LeftHand			LeftHandThumb1			LeftHandThumb2			LeftHandThumb3			LeftHandThumb3_End			LeftInHandIndex			LeftHandIndex1			LeftHandIndex2			LeftHandIndex3			LeftHandIndex3_End			LeftInHandMiddle			LeftHandMiddle1			LeftHandMiddle2			LeftHandMiddle3			LeftHandMiddle3_End			LeftInHandRing			LeftHandRing1			LeftHandRing2			LeftHandRing3			LeftHandRing3_End			LeftInHandPinky			LeftHandPinky1			LeftHandPinky2			LeftHandPinky3			LeftHandPinky3_End			
		X1	Y1	Z1	X2	Y2	Z2	X3	Y3	Z3	X4	Y4	Z4	X5	Y5	Z5	X6	Y6	Z6	X7	Y7	Z7	X8	Y8	Z8	X9	Y9	Z9	X10	Y10	Z10	X11	Y11	Z11	X12	Y12	Z12	X13	Y13	Z13	X14	Y14	Z14	X15	Y15	Z15	X16	Y16	Z16	X17	Y17	Z17	X18	Y18	Z18	X19	Y19	Z19	X20	Y20	Z20	X21	Y21	Z21	X22	Y22	Z22	X23	Y23	Z23	X24	Y24	Z24	X25	Y25	Z25	X26	Y26	Z26	X27	Y27	Z27	X28	Y28	Z28	X29	Y29	Z29	X30	Y30	Z30	X31	Y31	Z31	X32	Y32	Z32	X33	Y33	Z33	X34	Y34	Z34	X35	Y35	Z35	X36	Y36	Z36	X37	Y37	Z37	X38	Y38	Z38	X39	Y39	Z39	X40	Y40	Z40	X41	Y41	Z41	X42	Y42	Z42	X43	Y43	Z43	X44	Y44	Z44	X45	Y45	Z45	X46	Y46	Z46	X47	Y47	Z47	X48	Y48	Z48	X49	Y49	Z49	X50	Y50	Z50	X51	Y51	Z51	X52	Y52	Z52	X53	Y53	Z53	X54	Y54	Z54	X55	Y55	Z55	X56	Y56	Z56	X57	Y57	Z57	X58	Y58	Z58	X59	Y59	Z59	X60	Y60	Z60	X61	Y61	Z61	X62	Y62	Z62	X63	Y63	Z63	X64	Y64	Z64	X65	Y65	Z65	X66	Y66	Z66	X67	Y67	Z67	X68	Y68	Z68	X69	Y69	Z69	X70	Y70	Z70	X71	Y71	Z71	X72	Y72	Z72	

34	0.275	4446.805	859.65103	-201.189	4540.626723114632	857.4489090508939	-232.56535662388347	4392.134456586152	468.60712625747556	-292.31414797073074	4418.582751915731	40.29308211753352	-340.579226606314	4328.57046510321	-34.58015193053718	-178.51660744070642	4363.021881425253	834.4198647836398	-155.5938890130341	4243.117676768028	435.89359628425643	-106.1045385542125	4190.156646717864	58.23647263126417	62.14824123986937	4217.578229111032	14.278982257297502	245.73532173480675	4397.185616435103	979.5870137402813	-261.5045529552179	4341.72348268296	1042.2224370183158	-310.84898447788004	4277.295517066981	1100.485612981535	-362.6609924956189	4207.162109530883	1145.6167388674762	-412.77844433628627	4131.412037796486	1194.2075989782234	-462.9339008651191	4089.7540854101485	1266.4334457169668	-417.77079540699503	4066.772171434931	1350.8222622928347	-283.84443416836956	4177.4286608631255	1185.6354775830891	-466.87831033079016	4260.029031578475	1186.2260043203767	-549.4573671484678	4318.656642318296	958.4190775732458	-574.6760292751836	4407.544398919306	839.2453748101958	-653.7645020036326	4408.525672644065	839.528841261249	-669.9526396904079	4396.800207628964	836.0127857228192	-686.0827873424381	4390.094090846369	831.6726783140308	-695.9113718497862	4385.7520565292225	826.4363637242675	-702.903565460797	4415.692394843515	832.4894948582061	-666.2005473889044	4425.568045640023	816.3818973904158	-680.8754832009942	4422.586549322268	806.6935491834579	-692.1707651047436	4413.368869947805	804.2958683780347	-699.7928158089	4400.772104851312	804.7568670912997	-706.5061501232204	4418.849893336082	827.9777752810039	-661.9213607792842	4430.193010789209	809.82608605663	-673.91993313783	4427.311885412677	798.7130064454412	-685.6344577441687	4416.369726163128	795.5606164906168	-694.5370400504901	4402.67341466922	795.9387963041231	-701.7401380046725	4420.94022124291	825.17027621466	-658.5063810625848	4433.246874894769	806.3748828198009	-666.2445524151241	4431.097076566427	796.1645068563496	-675.8118815976512	4420.734403728897	792.8454161351283	-684.057607604349	4407.947354112161	793.069096770717	-690.6684950190769	4422.184473591875	822.6454473722748	-654.2812303706688	4434.616679458896	803.7406095860324	-658.7206732311766	4433.404534434174	794.8289358434293	-665.344913572897	4426.092340403094	792.0521592608159	-670.8577845424334	4414.9068860158995	792.0455230206513	-676.4252860954509	4135.0345169296	1173.711321056564	-423.55219005576924	4076.3682993678867	1106.3413873202524	-343.6595114951727	4183.43628877581	967.5448739962779	-519.3488608759628	4375.010555261073	883.4129156226907	-508.60416900343915	4363.348311680841	888.8683074312244	-515.3184243167393	4365.757481033131	886.7648757163657	-543.8779147843132	4368.495165405485	883.369206231199	-565.7722398887599	4371.68419957086	878.886598110074	-585.7402328859446	4364.803035705579	882.6282994062894	-521.7271946316326	4358.656198095972	873.4834378255257	-555.2700013831416	4361.188380885144	866.1526107290767	-586.0713955261973	4366.114104625323	863.3467610051849	-605.0783691078377	4372.451789680255	862.205949421098	-620.7144885092908	4368.223517380568	877.6490597451057	-526.3688511501412	4364.076271012176	866.0364343582253	-561.5940445058714	4367.31915834326	857.4085045214775	-595.7174657740467	4373.492097648038	853.7217363000251	-618.894835140798	4380.538602450889	852.3268556157128	-636.1232434191865	4370.733505848919	874.3599640489994	-528.7362707264074	4369.009981170301	861.0840370706579	-562.1964600962627	4372.334106025244	852.9398123589664	-592.407974658381	4378.552662647668	849.0522131120398	-615.0136719310686	4385.303387360016	847.5836230458905	-631.3308466577466	4374.304244277908	870.8704657953152	-530.9338537113318	4374.709926687761	856.5241307996835	-562.8012271915204	4378.156074022065	849.0868262559914	-587.5803239496454	4383.071316601581	845.8082317917617	-604.3528857286805	4389.269706833251	844.2523756155754	-618.9706205482712
35	0.283	4446.805	859.65103	-201.189	4540.408499949935	857.3990118228601	-232.57881291596783	4392.271053844558	468.4465324331658	-292.04749610856345	4419.17465554515	40.4074996957466	-340.63033154566233	4329.471070455133	-34.56474888755072	-178.66854094831646	4363.228863675363	834.4637263202795	-155.58615437764234	4243.4079296605305	435.93325455323514	-106.03262916150274	4190.294014574068	58.322634529931534	62.26132701662896	4217.890875911807	14.404191803763629	245.80395183860333	4397.247989245398	979.6165871622294	-261.47850050405475	4341.830170352689	1042.3083094583487	-310.7867451915041	4277.408661856971	1100.5754123516094	-362.5657873511566	4207.340917977097	1145.8035604232077	-412.6582529393674	4131.663090733865	1194.5002363813207	-462.7877947211757	4090.0062659209466	1266.713149773469	-417.60666133036347	4067.067274970083	1351.0277292072083	-283.6375210714991	4177.617865414782	1185.8983032829826	-466.7008233879229	4260.090941318601	1186.4723396411775	-549.0677241576743	4318.907953462964	958.929373246531	-574.2307079488323	4407.955399544008	840.2187972216374	-653.4735907406554	4409.03647020948	840.6115787837788	-669.5899336986026	4397.451916860334	837.1542994175892	-685.7388010374301	4390.836301173675	832.8463945188078	-695.5952061814584	4386.563185836843	827.6294578010754	-702.623240067959	4416.179864399856	833.5550119030403	-665.8789705292726	4426.166310646864	817.5382746081751	-680.584746677288	4423.28933002384	807.8915619272747	-691.9296962968721	4414.149293452133	805.5079728524687	-699.5836720520032	4401.625337031785	805.9726805475464	-706.3241360333852	4419.3140562517565	829.01536121371	-661.6402610945819	4430.7526260859495	810.9371922624848	-673.690800738179	4427.982148032918	799.8655378907297	-685.4647988418646	4417.132030561014	796.7282261682815	-694.4084289750681	4403.5145912974895	797.1095297547068	-701.6424426837049	4421.384785007446	826.1859900830129	-658.2529078776039	4433.759073311678	807.438026993525	-666.0610970190249	4431.702092697147	797.2595436843303	-675.6855764793127	4421.4262779250075	793.9527594459207	-683.9737179047794	4408.71247638229	794.178316951634	-690.6150108762553	4422.605650190682	823.6319005904971	-654.060151942597	4435.084480287841	804.7531603816537	-658.5831790818457	4433.940716309972	795.8602428160837	-665.2611677803951	4426.689001638741	793.0891623758255	-670.8088392032836	4415.566777934186	793.0823004838385	-676.4054979033526	4135.3000555384915	1173.9584487386937	-423.45718829358833	4076.707102902394	1106.6594293552598	-343.73896414369915	4183.724225968004	968.091543846082	-519.2311180014274	4375.116580318327	884.3193054065861	-508.5261041430848	4363.524398144745	889.8776980374557	-515.2039308987645	4365.959530086694	887.8153613164086	-543.6846448848034	4368.706164733533	884.4434640124634	-565.5260497447246	4371.894849927855	879.9765286957008	-585.4515846130208	4364.95534292868	883.6362573691096	-521.6206844057018	4358.8344533252975	874.6005487491583	-555.108274496081	4361.371225110827	867.3110270566531	-585.847888317177	4366.297832815789	864.5073129586758	-604.8063378542145	4372.634921450755	863.3523878860001	-620.3954712332783	4368.349448995672	878.6383913591795	-526.268428115694	4364.213249071232	867.1221657313838	-561.4430644778989	4367.4575629548535	858.5364536327942	-595.5000238059997	4373.629849951174	854.8508918439726	-618.6193082851753	4380.67486673291	853.4399019569993	-635.7965274634768	4370.840223571717	875.333693002326	-528.6417965424254	4369.110159885472	862.1316153469369	-562.0625389183454	4372.431849179018	854.0211137063749	-592.2171766719023	4378.647823627058	850.1330457273494	-614.7674046990666	4385.396223065006	848.6485356673186	-631.0367129346051	4374.387417147067	871.8203561043845	-530.8459537429565	4374.772871197396	857.5282406476399	-562.6819833819791	4378.211356912491	850.1128205667885	-587.4173454833913	4383.121953097738	846.8314074087383	-604.1503236279852	4389.316693596561	845.2600229979753	-618.7261606153837
36	0.292	4446.805	859.65103	-201.189	4540.184777509177	857.3502852101608	-232.59205802110247	4392.4179094486235	468.2872291385225	-291.80345033876995	4419.743938412103	40.52188721720495	-340.7018536796808	4330.354887780782	-34.54983440863843	-178.84154257445135	4363.441757446484	834.5059392291375	-155.5797427225136	4243.688569889803	435.9824338158004	-105.91847774591018	4190.453821872852	58.42921392872498	62.46743371635103	4218.219191879451	14.529554505703508	245.9594174235635	4397.308897540182	979.648182803566	-261.4475979179025	4341.929844015829	1042.3914680386595	-310.7189023470333	4277.489550674026	1100.6311976854038	-362.4635507651881	4207.47152197573	1145.9409414324557	-412.5195799289242	4131.853625974073	1194.7358612751848	-462.6090149575027	4090.1739601932077	1266.9205390101513	-417.4170928880038	4067.2592849371863	1351.1730996023196	-283.4165047121765	4177.73142318368	1186.0801172785668	-466.5010742907578	4260.0535632426245	1186.6209174011144	-548.6575798678983	4319.180253335873	959.3372210766146	-573.7640237616853	4408.296662110727	841.1226002675804	-653.1868752080679	4409.472189147394	841.6307964172365	-669.237353344041	4398.019297059374	838.244304925456	-685.4088570116019	4391.486990622399	833.9766918731715	-695.2951552751703	4387.276157026908	828.7856411445669	-702.3601967314469	4416.589111051811	834.555987044533	-665.5657946405892	4426.6704573094385	818.639419207128	-680.3060642341703	4423.886749515008	809.0439913606472	-691.702799471705	4414.81911131429	806.6817356373174	-699.3900340057313	4402.36479962004	807.156984379459	-706.1587433186709	4419.698501390402	829.9874825938782	-661.365633660752	4431.216211013738	811.9914138403814	-673.4706603366694	4428.543966420594	800.9715659223023	-685.3061758995811	4417.779493366918	797.8579982161991	-694.2923351094337	4404.237430295622	798.2498663958983	-701.5584229898567	4421.748974054137	827.1353175637887	-658.004451600733	4434.175689657572	808.4415800369633	-665.8836557592191	4432.200583418305	798.3038732424516	-675.56679019083	4422.005390364142	795.017667108197	-683.8986288387296	4409.361518646649	795.2520563953517	-690.5713470368283	4422.94620481103	824.5508887426805	-653.8423012579284	4435.45753237696	805.7037086991992	-658.4487282670714	4434.373260279105	796.8363755160818	-665.1812341960663	4427.177415085413	794.076885930655	-670.7644301303657	4416.115447677828	794.075879821464	-676.3910277285004	4135.53032595773	1174.17810353164	-423.3319064623215	4077.0485708160413	1106.9670117942703	-343.7823594975716	4183.995126435911	968.6120343457496	-519.0271437359055	4375.170843905836	885.2065513662673	-508.37765814668626	4363.649050889352	890.8603127796523	-514.9972120457869	4366.095542074976	888.8339901317108	-543.3893700598895	4368.84097344854	885.4833234781293	-565.1734067403637	4372.0208589965005	881.0307948607784	-585.0547968249144	4365.0578471917415	884.6202693656599	-521.427627150623	4358.959277855883	875.6902574852236	-554.8474675396457	4361.4898752088575	868.4398658332199	-585.5207844868186	4366.406420979434	865.6365169037713	-604.4292579058492	4372.730983743482	864.465731039154	-619.9711180107982	4368.4253564237515	879.6066192127761	-526.0885203734665	4364.296547435934	868.1849597685906	-561.2041941028102	4367.530514961921	859.6394779050607	-595.19074069	4373.68893063647	855.9531719474589	-618.2506577070742	4380.7193999652045	854.5242513704953	-635.3766017345637	4370.896936336563	876.2884179346678	-528.4731171683059	4369.157317402415	863.1603791026345	-561.851375622184	4372.466286357774	855.0822664130718	-591.9467060363912	4378.666915430438	851.1920594107322	-614.4407656736116	4385.400704545241	849.690016742601	-630.6623814376885	4374.420058381969	872.7537349542173	-530.6905311024525	4374.7824702395155	858.5175602986753	-562.4964472148885	4378.205034678744	851.1235761672622	-587.1877220726406	4383.10166315553	847.8384260769308	-603.8813775627972	4389.281864634462	846.2502572486518	-618.4159145621337
37	0.3	4446.805	859.65103	-201.189	4539.956706810092	857.3030345506253	-232.60478858938234	4392.572032232104	468.13170544032727	-291.58676237634285	4420.275422884944	40.6376204334227	-340.7993513094916	4331.206933681976	-34.533586271253064	-179.04074677224344	4363.659191071601	834.5461275444798	-155.5749244769809	4243.953376485685	436.0437395937701	-105.75097593605045	4190.633452854791	58.55695311179665	62.77583125355273	4218.561033000536	14.653179434778957	246.21049091257106	4397.369235527988	979.6820905225826	-261.41200925158574	4342.02395016835	1042.4726478523146	-310.6456812776502	4277.5451236083645	1100.6613849179575	-362.354155576139	4207.5612626545835	1146.0379491574913	-412.3622667912789	4131.991033407561	1194.923603208247	-462.39729935791536	4090.2650594743063	1267.066705177534	-417.20461602169036	4067.353476634293	1351.2751677471458	-283.1881182674794	4177.776866944999	1186.1902546372671	-466.2786506168034	4259.925614370787	1186.6878742410206	-548.228758574847	4319.48506160145	959.6621453870725	-573.2768037526183	4408.577274625774	841.9824466238716	-652.9112097180978	4409.840704939587	842.613158554402	-668.9028978824751	4398.5081561361	839.3110746046424	-685.1013830505501	4392.050584641087	835.0929928777159	-695.0197635961778	4387.8942922220185	829.9353210832312	-702.1229217243515	4416.9281910149675	835.5192525457403	-665.2685016646086	4427.086804892391	819.7142062136704	-680.0470769801783	4424.383458292593	810.1813099927289	-691.497671127895	4415.381772035896	807.8485357217618	-699.219520804365	4402.99283522442	808.3418494157918	-706.0176438901117	4420.011479773941	830.9209915297005	-661.1044532138303	4431.59042790738	813.0176060611079	-673.266367597788	4429.002212694968	802.0616852147272	-685.1653282717181	4418.315551276092	798.9816191235204	-694.1954926867664	4404.844165515942	799.3922488145384	-701.4948550958001	4422.041226019863	828.0450715168524	-657.7676249940206	4434.503913578305	809.4141124730187	-665.7184216896823	4432.598211923886	799.3275751249137	-675.4615454587283	4422.476037646717	796.0712681275617	-683.8383215649915	4409.897655062436	796.3221532532314	-690.5435067509554	4423.214803480509	825.4291295362567	-653.6338659153704	4435.743513128412	806.6205224270924	-658.3228628203137	4434.70867968537	797.7867916528302	-665.1104127287177	4427.5631254675445	795.0455440765605	-670.7297757585442	4416.557461921564	795.0570982012639	-676.3870841453629	4135.73251967779	1174.379146881266	-423.17627402996624	4077.3987241437244	1107.2711463074413	-343.79141037438023	4184.248898769114	969.1139227768139	-518.7400501455578	4375.175220307769	886.0899108795545	-508.15717265898866	4363.726333642106	891.8325592620201	-514.7005299541916	4366.17341661626	889.8370257268024	-542.9958668184023	4368.910003564758	886.5049018879969	-564.7186995721954	4372.074597307873	882.0653524657134	-584.5543900970313	4365.1140575470845	885.5968206129727	-521.1492182653964	4359.0368947485	876.7701609453865	-554.4908059782539	4361.553435683657	869.5567649920615	-585.0938707960813	4366.451228846452	866.7515853751703	-603.9510005113779	4372.753515779184	865.5625351752027	-619.4451915969555	4368.454269211066	880.5700297958673	-525.8290089383928	4364.3315831300815	869.2420799544831	-560.8785837288389	4367.546504795506	860.7348548358766	-594.7911982263723	4373.680516985438	857.0453261385782	-617.7904802085081	4380.685747669777	855.595928185682	-634.8649020842197	4370.90625505947	877.2402639128471	-528.2291393415318	4369.155809960436	864.1872104003264	-561.5621868303405	4372.444376566944	856.1401317243544	-591.5959682375118	4378.619448324211	852.2455885903669	-614.0330754252294	4385.328549689929	850.7237104948182	-630.2069743336288	4374.404301131199	873.6864511689834	-530.465262316409	4374.742128577651	859.5084876937881	-562.2418423251248	4378.14247011504	852.1354193870183	-586.8885352314043	4383.01760946352	848.8452033047748	-603.5429251933526	4389.174303106103	847.2383672042702	-618.0365026163677
